<?xml version="1.0" standalone="no"?><!DOCTYPE svg PUBLIC "-//W3C//DTD SVG 1.1//EN" "http://www.w3.org/Graphics/SVG/1.1/DTD/svg11.dtd"><svg class="icon" height="512" viewBox="0 0 1024 1024" version="1.1" xmlns="http://www.w3.org/2000/svg"><path d="M945.92 391.253333c0-165.12-133.546667-298.666667-298.666667-298.666666s-298.666667 133.546667-298.666666 298.666666A297.813333 297.813333 0 0 0 597.333333 685.226667V853.333333H256v-128h42.666667v-170.666666c0-23.466667-19.2-42.666667-42.666667-42.666667H128c-23.466667 0-42.666667 19.2-42.666667 42.666667v170.666666h42.666667v213.333334h682.666667v-85.333334h-128v-165.546666a298.666667 298.666667 0 0 0 263.253333-296.533334zM192 469.333333c35.413333 0 64-28.586667 64-64S227.413333 341.333333 192 341.333333 128 369.92 128 405.333333 156.586667 469.333333 192 469.333333z" /></svg>